<svg width="600" height="250" viewBox="0 0 600 250" fill="none" xmlns="http://www.w3.org/2000/svg">
<path d="M333.282 0.442629C327.893 1.56018 326.015 4.82686 265.756 116.066C233.503 175.468 206.803 225.586 206.313 227.391C204.516 234.354 207.374 242.005 213.335 245.788C217.989 248.796 225.501 247.507 230.4 242.865C233.013 240.544 247.221 215.27 266.409 179.079C267.47 177.187 273.513 165.926 279.963 154.149C291.395 133.173 292.783 130.508 296.375 123.803C297.355 122.084 310.175 98.3571 324.954 71.1921C353.532 18.5813 354.022 17.5497 351.817 10.5865C349.286 2.41983 342.346 -1.36264 333.282 0.442629Z" fill="black"/>
<path d="M403.911 2.76369C400.809 4.2251 397.624 7.49179 395.828 11.1883C394.358 14.283 394.277 17.9796 394.277 126.21C394.277 234.44 394.358 238.137 395.828 241.232C398.767 247.249 402.932 250 409.301 250C413.383 250 417.302 248.023 435.511 236.675C446.044 230.142 496.015 199.366 503.282 194.982C504.671 194.123 511.284 190.082 517.98 185.956C524.757 181.829 531.371 177.789 532.677 176.929C535.045 175.468 557.173 161.886 562.072 158.877C563.46 158.017 570.972 153.461 578.811 148.647C597.999 137.042 601.265 133.001 599.632 122.857C598.979 118.731 594.325 112.885 589.752 110.22C587.956 109.189 581.097 104.976 574.32 100.85C567.624 96.7238 561.011 92.6834 559.623 91.8238C537.331 78.1553 523.287 69.5588 500.833 55.7183C486.054 46.606 472.826 38.4393 471.438 37.6656C470.132 36.806 458.7 29.8428 446.126 22.1919C433.551 14.5409 422.936 8.00758 422.447 7.57775C422.038 7.23389 419.344 5.68651 416.649 4.2251C411.342 1.38825 407.668 0.95842 403.911 2.76369ZM468.172 71.1921C487.034 82.6255 503.609 92.6834 504.915 93.5431C506.304 94.4027 511.039 97.3256 515.53 99.9905C520.021 102.741 524.839 105.578 526.145 106.438C548.11 119.848 553.254 123.029 554.152 123.975C555.05 124.92 554.805 125.436 552.519 126.812C549.661 128.617 538.066 135.838 517.98 148.131C502.139 157.931 494.709 162.487 483.686 169.365C478.787 172.459 469.397 178.219 462.865 182.259C456.332 186.3 445.146 193.263 437.961 197.733C430.775 202.289 424.651 205.728 424.325 205.556C423.59 205.126 423.426 45.9183 424.161 45.1446C424.406 44.8867 426.693 46.0043 429.224 47.5516C431.837 49.099 449.31 59.7587 468.172 71.1921Z" fill="black"/>
<path d="M9.28562 3.36545C5.85622 4.39704 1.69195 8.86723 0.71212 12.6497C0.0589007 14.7988 -0.104404 51.1622 0.0589007 127.929C0.303858 235.214 0.38551 240.2 1.7736 242.693C6.42779 250.688 17.7775 252.321 24.473 245.96C26.2693 244.24 27.984 241.661 28.4739 239.856C29.5354 235.558 29.6171 16.948 28.4739 12.7357C26.4326 4.99879 17.6958 0.786492 9.28562 3.36545Z" fill="black"/>
<path d="M97.5518 3.27949C94.2041 4.39704 89.8765 9.12514 88.8967 12.7357C87.7535 16.948 87.8352 235.558 88.8967 239.856C90.693 246.647 98.3684 250.946 106.125 249.57C111.106 248.711 116.332 243.123 117.067 237.965C117.312 235.816 117.475 184.151 117.312 123.201C117.067 -0.502991 117.557 10.4146 111.433 5.42863C108.248 2.93563 101.634 1.90405 97.5518 3.27949Z" fill="black"/>
</svg>
