<svg width="600" height="250" viewBox="0 0 600 250" fill="none" xmlns="http://www.w3.org/2000/svg">
<path d="M10.2222 1.08983C6.93034 2.56114 3.5518 5.84994 1.64596 9.57147C0.0866292 12.6872 0 16.4087 0 125.372C0 234.335 0.0866292 238.056 1.64596 241.172C4.76461 247.23 9.1827 250 15.9398 250C20.2712 250 24.4294 248.009 43.7478 236.585C54.9229 230.008 107.94 199.024 115.65 194.61C117.123 193.744 124.14 189.676 131.243 185.522C138.433 181.368 145.45 177.3 146.837 176.435C149.349 174.963 172.825 161.289 178.023 158.26C179.496 157.394 187.466 152.807 195.782 147.961C216.14 136.277 219.605 132.209 217.872 121.996C217.179 117.842 212.242 111.957 207.39 109.274C205.485 108.235 198.208 103.995 191.017 99.8404C183.914 95.6861 176.897 91.6184 175.424 90.7529C151.774 76.9919 136.874 68.3371 113.051 54.403C97.3712 45.229 83.3373 37.007 81.8646 36.2281C80.4785 35.3626 68.3505 28.3522 55.0096 20.6495C41.6687 12.9468 30.4069 6.36922 29.8871 5.93648C29.4539 5.59029 26.5952 4.03244 23.7364 2.56114C18.1055 -0.294925 14.2072 -0.727662 10.2222 1.08983ZM78.3994 69.9815C98.4108 81.4923 115.997 91.6184 117.383 92.4838C118.855 93.3493 123.88 96.2919 128.644 98.9749C133.409 101.744 138.52 104.6 139.906 105.466C163.209 118.967 168.667 122.17 169.62 123.122C170.573 124.074 170.313 124.593 167.887 125.978C164.855 127.795 152.554 135.065 131.243 147.441C114.437 157.308 106.554 161.895 94.859 168.819C89.6612 171.934 79.6989 177.733 72.7685 181.801C65.8382 185.868 53.97 192.879 46.3466 197.379C38.7233 201.966 32.2261 205.428 31.8796 205.255C31.0999 204.822 30.9266 44.5366 31.7063 43.7577C31.9662 43.498 34.3918 44.6231 37.0773 46.181C39.8494 47.7389 58.3881 58.4707 78.3994 69.9815Z" fill="black"/>
<path d="M353.509 0.445417C347.792 1.56998 345.8 4.85718 281.88 116.795C247.669 176.57 219.346 227.003 218.827 228.819C216.921 235.826 219.953 243.525 226.275 247.331C231.212 250.359 239.181 249.061 244.377 244.39C247.149 242.054 262.219 216.622 282.573 180.203C283.699 178.3 290.109 166.968 296.951 155.117C309.077 134.009 310.549 131.328 314.36 124.58C315.399 122.85 328.997 98.9748 344.674 71.6392C374.988 18.698 375.508 17.66 373.17 10.653C370.485 2.43504 363.123 -1.37119 353.509 0.445417Z" fill="black"/>
<path d="M466.207 1.62837C461.963 2.66643 456.808 7.1647 455.595 10.9709C454.787 13.1336 454.585 49.7253 454.787 126.974C455.09 234.933 455.191 239.95 456.909 242.459C462.67 250.504 476.718 252.147 485.006 245.746C487.229 244.016 489.352 241.421 489.958 239.604C491.272 235.279 491.373 15.2962 489.958 11.0574C487.431 3.27197 476.617 -0.966789 466.207 1.62837Z" fill="black"/>
<path d="M575.461 1.54187C571.317 2.66643 565.96 7.42422 564.747 11.0574C563.333 15.2962 563.434 235.279 564.747 239.604C566.971 246.438 576.471 250.763 586.073 249.379C592.238 248.514 598.706 242.891 599.615 237.701C599.919 235.538 600.121 183.549 599.919 122.217C599.615 -2.26437 600.222 8.7218 592.642 3.7045C588.7 1.19585 580.514 0.157784 575.461 1.54187Z" fill="black"/>
</svg>
